<?xml version="1.0" encoding="iso-8859-1"?>
<!-- Generator: Adobe Illustrator 19.0.0, SVG Export Plug-In . SVG Version: 6.00 Build 0)  -->
<svg version="1.1" id="Capa_1" xmlns="http://www.w3.org/2000/svg" xmlns:xlink="http://www.w3.org/1999/xlink" x="0px" y="0px"
	 viewBox="0 0 512 512" style="enable-background:new 0 0 512 512;" xml:space="preserve">
<rect x="170.69" y="76.02" style="fill:#D0D0D0;" width="170.62" height="185"/>
<rect x="256.02" y="76.02" style="fill:#ADADAD;" width="85.28" height="185"/>
<rect y="245.98" style="fill:#DDDDDD;" width="170.62" height="190"/>
<rect x="85.33" y="245.98" style="fill:#C1C1C1;" width="85.28" height="190"/>
<rect x="170.69" y="245.98" style="fill:#DDDDDD;" width="170.62" height="190"/>
<rect x="256.02" y="245.98" style="fill:#C1C1C1;" width="85.28" height="190"/>
<g>
	<polygon style="fill:#585858;" points="256,374.435 214.484,332.919 235.697,311.706 256,332.008 276.303,311.706 297.516,332.919 
			"/>
	<polygon style="fill:#585858;" points="276.303,199.885 256,179.583 235.697,199.885 214.484,178.672 256,137.156 297.516,178.672 
			"/>
	<polygon style="fill:#585858;" points="95.46,382.495 53.944,340.979 95.46,299.464 116.673,320.676 96.37,340.979 
		116.673,361.282 	"/>
</g>
<polygon style="fill:#2D2D2D;" points="116.673,320.676 95.46,299.464 85.333,309.59 85.333,372.368 95.46,382.495 116.673,361.282 
	96.37,340.979 "/>
<rect x="341.38" y="245.98" style="fill:#C1C1C1;" width="170.62" height="190"/>
<rect x="341.38" y="245.98" style="fill:#DDDDDD;" width="85.28" height="190"/>
<polygon style="fill:#2D2D2D;" points="416.54,382.495 458.056,340.979 416.54,299.464 395.327,320.676 415.63,340.979 
	395.327,361.282 "/>
<polygon style="fill:#585858;" points="395.327,320.676 416.54,299.464 426.667,309.59 426.667,372.368 416.54,382.495 
	395.327,361.282 415.63,340.979 "/>
<g>
	<polygon style="fill:#2D2D2D;" points="276.303,311.706 256,332.008 256,374.435 297.516,332.919 	"/>
	<polygon style="fill:#2D2D2D;" points="256,137.156 256,179.583 276.303,199.885 297.516,178.673 	"/>
</g>
<g>
</g>
<g>
</g>
<g>
</g>
<g>
</g>
<g>
</g>
<g>
</g>
<g>
</g>
<g>
</g>
<g>
</g>
<g>
</g>
<g>
</g>
<g>
</g>
<g>
</g>
<g>
</g>
<g>
</g>
</svg>
